# xmcd
# Copyright (C) 1995-1998 Ti Kan
#
# Track frame offsets:
#       150
#       12865
#       27217
#       40400
#       51337
#       64210
#       76405
#       89210
#       98667
#       112397
#       125725
#       136245
#       151242
#       165592
#       180160
#       190682
#       207885
#       221502
#       238057
#       263835
#       282702
#       300692
#
# Disc length: 4198 seconds
#
# Revision: 0
# Processed by: cddbd v1.5.2PL0 Copyright (c) Steve Scherf et al.
# Submitted via: CD-Import v1.0
#
DISCID=3f106416
DTITLE=Various Artist - Discover The Rhythms Of British Ska
DYEAR=1900
DGENRE=
TTITLE0=The Special A.k.a. - Gangsters
TTITLE1=The Selecter - On My Radio
TTITLE2=The Specials Featuring Rico - A Message To You Rudy
TTITLE3=Madness - Madness
TTITLE4=The Selecter - Too Much Pressure
TTITLE5=The Bodysnatchers - Tears Of A Clown
TTITLE6=The Beat - Ranking Full Stop
TTITLE7=The Specials - Too Much Too Young
TTITLE8=The Selecter - Three Minute Hero
TTITLE9=The Bodysnatchers - People Do Rock Steady
TTITLE10=The Specials - Guns Of Navarone
TTITLE11=The Selecter - Missing Words
TTITLE12=The Specials - Rat Race
TTITLE13=He Bodysnatchers - Easy Life
TTITLE14=The Selecter - James Bond
TTITLE15=The Specials - Stereotype
TTITLE16=Rico - Sea Cruise
TTITLE17=The Specials - Ghost Town
TTITLE18=Rhoda With The Special A.k.a. - The Boiler
TTITLE19=The Special A.k.a. - Nelson Mandela
TTITLE20=The Special A.k.a. - What I Like Most About You Is Your Girlfriend
TTITLE21=The Selecter - Carry Go Bring Home
EXTD=
EXTT0=
EXTT1=
EXTT2=
EXTT3=
EXTT4=
EXTT5=
EXTT6=
EXTT7=
EXTT8=
EXTT9=
EXTT10=
EXTT11=
EXTT12=
EXTT13=
EXTT14=
EXTT15=
EXTT16=
EXTT17=
EXTT18=
EXTT19=
EXTT20=
EXTT21=
PLAYORDER=
